<svg class="img-fluid" id="outputsvg" xmlns="http://www.w3.org/2000/svg" width="140" height="140" viewBox="0 0 5500 5500" style="max-height: none; cursor: move; transition: none;">
  <g id="l5fYGtLkslPV9YX26VXGtuF" fill="rgb(155,155,155)">
    <g>
      <path id="pdOIMHwVv" d="M74 5493 c-12 -2 -32 -15 -45 -29 l-24 -26 0 -723 0 -723 24 -26 c33 -35 83 -35 116 -1 l25 24 0 671 0 670 670 0 671 0 24 25 c34 33 34 83 -1 116 l-26 24 -706 1 c-389 1 -717 0 -728 -3z"></path>
      <path id="p1DX1dZYlF" d="M4005 5493 c-64 -16 -86 -93 -40 -138 l24 -25 671 0 670 0 0 -670 0 -671 25 -24 c33 -34 83 -34 116 1 l24 26 0 724 0 724 -28 27 -27 28 -708 1 c-389 1 -716 0 -727 -3z"></path>
      <path id="pFaepcl1x" d="M1969 4125 c-415 -240 -764 -447 -776 -461 l-23 -25 0 -889 0 -889 22 -25 c34 -38 1526 -896 1558 -896 14 0 91 37 171 83 772 444 1357 785 1380 805 l29 24 0 895 0 896 -32 29 c-52 47 -1518 888 -1548 888 -16 0 -310 -164 -781 -435z m699 -562 l-3 -766 -655 -378 c-360 -208 -658 -379 -663 -379 -4 0 -6 345 -5 766 l3 765 655 379 c360 209 658 379 663 379 4 1 6 -344 5 -766z m832 388 l655 -379 3 -766 c1 -421 -1 -766 -5 -766 -5 0 -303 171 -663 379 l-655 379 -3 766 c-1 421 1 766 5 766 5 -1 303 -171 663 -379z m-89 -1678 c360 -208 654 -382 653 -388 -1 -16 -1307 -766 -1323 -760 -13 5 -1240 711 -1290 742 -15 10 -20 18 -13 25 14 14 1295 756 1308 757 6 1 305 -169 665 -376z"></path>
      <path id="p1E5kr9tQw" d="M29 1534 l-24 -26 0 -724 0 -724 28 -27 27 -28 724 0 724 0 26 24 c35 33 35 83 1 116 l-24 25 -671 0 -670 0 0 670 0 671 -25 24 c-33 34 -83 34 -116 -1z"></path>
      <path id="pml29Yf6o" d="M5355 1535 l-25 -24 0 -671 0 -670 -670 0 -671 0 -24 -25 c-34 -33 -34 -83 1 -116 l26 -24 724 0 724 0 27 28 28 27 0 724 0 724 -24 26 c-33 35 -83 35 -116 1z"></path>
    </g>
  </g>
</svg>
